<svg xmlns="http://www.w3.org/2000/svg" xmlns:xlink="http://www.w3.org/1999/xlink" width="12" height="12" viewBox="0 0 12 12">
  <defs>
    <clipPath id="clip-path">
      <rect id="사각형_26745" data-name="사각형 26745" width="12" height="12" transform="translate(-0.38 -0.38)" fill="#9e9e9e"/>
    </clipPath>
  </defs>
  <g id="그룹_32060" data-name="그룹 32060" transform="translate(0.38 0.38)" clip-path="url(#clip-path)">
    <path id="패스_10586" data-name="패스 10586" d="M8.527,1.012l1.863-.3A.361.361,0,0,0,10.7.3a.373.373,0,0,0-.43-.3L7.112.511,8.158,3.532a.372.372,0,0,0,.354.246.386.386,0,0,0,.119-.019A.357.357,0,0,0,8.867,3.3L8.311,1.7a5,5,0,0,1,2.857,5.125A5.156,5.156,0,0,1,6.583,11.2a5.166,5.166,0,0,1-5.835-5A5.075,5.075,0,0,1,4.576,1.356a.363.363,0,0,0,.281-.346A.374.374,0,0,0,4.378.663,5.771,5.771,0,0,0,.032,6.793a5.887,5.887,0,0,0,5.26,5.124A5.9,5.9,0,0,0,11.955,6.2a5.736,5.736,0,0,0-3.427-5.19" transform="translate(-0.334 -0.334)" fill="#9e9e9e"/>
  </g>
</svg>
